<?xml version="1.0" standalone="no"?>
<!DOCTYPE svg PUBLIC "-//W3C//DTD SVG 20010904//EN"
 "http://www.w3.org/TR/2001/REC-SVG-20010904/DTD/svg10.dtd">
<svg version="1.0" xmlns="http://www.w3.org/2000/svg"
 width="512.000000pt" height="512.000000pt" viewBox="0 0 512.000000 512.000000"
 preserveAspectRatio="xMidYMid meet">
<style>
#favi {
  fill: #A0A;
}
@media (prefers-color-scheme: dark) {
  #favi {
    fill: #F5F;
  }
}
</style>
<g transform="translate(0.000000,512.000000) scale(0.100000,-0.100000)"
fill="#A0A" stroke="none" id="favi">
<path d="M430 5110 c-216 -38 -388 -211 -420 -425 -7 -48 -10 -732 -8 -2170
l3 -2100 21 -55 c38 -100 66 -144 130 -207 75 -76 176 -127 279 -143 48 -7
732 -10 2170 -8 l2100 3 55 21 c100 38 144 66 207 130 76 75 127 176 143 279
7 48 10 732 8 2170 l-3 2100 -21 55 c-38 100 -66 144 -130 207 -73 74 -175
127 -274 143 -77 12 -4190 12 -4260 0z m1733 -1011 c12 -6 30 -21 39 -33 16
-20 18 -100 18 -1234 0 -1303 1 -1283 -51 -1413 -50 -129 -170 -265 -286 -327
-32 -16 -92 -41 -133 -54 -73 -23 -83 -23 -480 -23 l-405 0 -80 28 c-117 42
-181 81 -265 166 -87 88 -139 178 -171 298 -18 67 -22 116 -26 347 -6 303 -2
335 50 366 26 17 51 20 139 20 195 0 191 6 199 -355 6 -320 11 -341 85 -424
31 -35 62 -57 102 -72 53 -21 76 -23 330 -27 370 -5 452 11 535 109 77 89 71
-9 77 1344 5 1313 2 1249 59 1280 32 18 232 20 264 4z m2132 -12 c238 -69 411
-239 470 -462 21 -80 38 -264 32 -345 -9 -126 -39 -150 -191 -150 -173 0 -196
24 -196 212 0 161 -30 256 -102 325 -83 80 -190 97 -573 91 -252 -4 -274 -6
-330 -28 -79 -30 -145 -95 -175 -175 -21 -54 -24 -81 -28 -258 -4 -172 -2
-205 13 -244 52 -134 203 -216 525 -283 251 -52 469 -106 561 -140 102 -37
243 -126 318 -201 123 -123 166 -226 183 -438 13 -158 0 -396 -26 -493 -61
-227 -237 -402 -467 -465 -57 -16 -113 -18 -499 -18 -380 0 -443 2 -497 17
-188 52 -340 176 -422 344 -55 112 -63 161 -68 381 l-5 202 30 31 30 30 126 0
c125 0 126 0 158 -29 l33 -29 6 -169 c7 -173 12 -200 47 -270 44 -85 113 -131
228 -152 76 -14 593 -14 669 0 110 20 186 73 230 159 37 74 47 150 43 335 -3
161 -5 173 -30 221 -33 62 -85 110 -173 159 -99 55 -201 88 -460 145 -348 77
-421 98 -530 150 -221 106 -349 248 -390 434 -14 62 -16 118 -13 333 4 236 6
264 27 328 70 214 208 361 405 432 106 38 160 42 576 39 350 -2 413 -4 465
-19z"/>
</g>
</svg>
