<svg width="768" height="305" viewBox="0 0 768 305" xmlns="http://www.w3.org/2000/svg" xmlns:xlink="http://www.w3.org/1999/xlink">
    <defs>
        <filter x="-26.7%" y="-24.8%" width="153.5%" height="153.5%" filterUnits="objectBoundingBox" id="lqsjw1n94c">
            <feOffset dy="1" in="SourceAlpha" result="shadowOffsetOuter1"/>
            <feGaussianBlur stdDeviation="4.5" in="shadowOffsetOuter1" result="shadowBlurOuter1"/>
            <feComposite in="shadowBlurOuter1" in2="SourceAlpha" operator="out" result="shadowBlurOuter1"/>
            <feColorMatrix values="0 0 0 0 0.121568627 0 0 0 0 0.352941176 0 0 0 0 0.988235294 0 0 0 0.16 0" in="shadowBlurOuter1"/>
        </filter>
        <filter x="-53.5%" y="-49.7%" width="206.9%" height="206.9%" filterUnits="objectBoundingBox" id="zxvbgxfuae">
            <feOffset dy="1" in="SourceAlpha" result="shadowOffsetOuter1"/>
            <feGaussianBlur stdDeviation="4.5" in="shadowOffsetOuter1" result="shadowBlurOuter1"/>
            <feComposite in="shadowBlurOuter1" in2="SourceAlpha" operator="out" result="shadowBlurOuter1"/>
            <feColorMatrix values="0 0 0 0 0.121568627 0 0 0 0 0.352941176 0 0 0 0 0.988235294 0 0 0 0.16 0" in="shadowBlurOuter1"/>
        </filter>
        <filter x="-49.4%" y="-45.6%" width="198.8%" height="198.8%" filterUnits="objectBoundingBox" id="2jb7tc6tig">
            <feGaussianBlur stdDeviation="1.309" in="SourceGraphic"/>
        </filter>
        <filter x="-53.5%" y="-49.7%" width="206.9%" height="206.9%" filterUnits="objectBoundingBox" id="axkqpd9g9h">
            <feOffset dy="1" in="SourceAlpha" result="shadowOffsetOuter1"/>
            <feGaussianBlur stdDeviation="4.5" in="shadowOffsetOuter1" result="shadowBlurOuter1"/>
            <feComposite in="shadowBlurOuter1" in2="SourceAlpha" operator="out" result="shadowBlurOuter1"/>
            <feColorMatrix values="0 0 0 0 0.121568627 0 0 0 0 0.352941176 0 0 0 0 0.988235294 0 0 0 0.16 0" in="shadowBlurOuter1"/>
        </filter>
        <filter x="-53.6%" y="-50.7%" width="207.2%" height="207.2%" filterUnits="objectBoundingBox" id="pbof6kehrj">
            <feGaussianBlur stdDeviation="2.82598844 4.40832094" in="SourceGraphic"/>
        </filter>
        <filter x="-59.3%" y="-56.5%" width="218.6%" height="218.6%" filterUnits="objectBoundingBox" id="8quek3gkok">
            <feOffset dy="1" in="SourceAlpha" result="shadowOffsetOuter1"/>
            <feGaussianBlur stdDeviation="1.5" in="shadowOffsetOuter1" result="shadowBlurOuter1"/>
            <feComposite in="shadowBlurOuter1" in2="SourceAlpha" operator="out" result="shadowBlurOuter1"/>
            <feColorMatrix values="0 0 0 0 0.121568627 0 0 0 0 0.352941176 0 0 0 0 0.988235294 0 0 0 0.08 0" in="shadowBlurOuter1"/>
        </filter>
        <filter x="-66.7%" y="-72.9%" width="233.3%" height="245.8%" filterUnits="objectBoundingBox" id="j12u1b2mzm">
            <feGaussianBlur stdDeviation="2.64012757 2.2838942" in="SourceGraphic"/>
        </filter>
        <filter x="-291.7%" y="-291.7%" width="683.3%" height="683.3%" filterUnits="objectBoundingBox" id="nfw3heitfn">
            <feGaussianBlur stdDeviation="2.64012757 2.2838942" in="SourceGraphic"/>
        </filter>
        <filter x="-106.1%" y="-300%" width="312.1%" height="700%" filterUnits="objectBoundingBox" id="m04ktmi2lo">
            <feGaussianBlur stdDeviation="2.64012757 2.2838942" in="SourceGraphic"/>
        </filter>
        <filter x="-38.6%" y="-35.7%" width="177.2%" height="177.2%" filterUnits="objectBoundingBox" id="oeany6136p">
            <feGaussianBlur stdDeviation="2.92942465 -1.89866203" in="SourceGraphic"/>
        </filter>
        <filter x="-44.3%" y="-41.5%" width="188.6%" height="188.6%" filterUnits="objectBoundingBox" id="2qqzrt0jeq">
            <feOffset dy="1" in="SourceAlpha" result="shadowOffsetOuter1"/>
            <feGaussianBlur stdDeviation="1.5" in="shadowOffsetOuter1" result="shadowBlurOuter1"/>
            <feComposite in="shadowBlurOuter1" in2="SourceAlpha" operator="out" result="shadowBlurOuter1"/>
            <feColorMatrix values="0 0 0 0 0.121568627 0 0 0 0 0.352941176 0 0 0 0 0.988235294 0 0 0 0.08 0" in="shadowBlurOuter1"/>
        </filter>
        <filter x="-103.1%" y="-103.1%" width="306.2%" height="306.2%" filterUnits="objectBoundingBox" id="ms8v1m4hps">
            <feGaussianBlur stdDeviation="4.02795889 -2.6106603" in="SourceGraphic"/>
        </filter>
        <filter x="-191%" y="-928.9%" width="482%" height="1957.8%" filterUnits="objectBoundingBox" id="ghj37u032t">
            <feGaussianBlur stdDeviation="4.02795889 -2.6106603" in="SourceGraphic"/>
        </filter>
        <filter x="-165%" y="-139.9%" width="430%" height="379.7%" filterUnits="objectBoundingBox" id="yqstyfdieu">
            <feGaussianBlur stdDeviation="4.02795889 -2.6106603" in="SourceGraphic"/>
        </filter>
        <filter x="-471.7%" y="-473.9%" width="1043.5%" height="1047.9%" filterUnits="objectBoundingBox" id="nnoi5pohzv">
            <feGaussianBlur stdDeviation="4.02795889 -2.6106603" in="SourceGraphic"/>
        </filter>
        <filter x="-32.1%" y="-29.8%" width="164.2%" height="164.2%" filterUnits="objectBoundingBox" id="pub01aq2iw">
            <feOffset dy="1" in="SourceAlpha" result="shadowOffsetOuter1"/>
            <feGaussianBlur stdDeviation="4.5" in="shadowOffsetOuter1" result="shadowBlurOuter1"/>
            <feComposite in="shadowBlurOuter1" in2="SourceAlpha" operator="out" result="shadowBlurOuter1"/>
            <feColorMatrix values="0 0 0 0 0.121568627 0 0 0 0 0.352941176 0 0 0 0 0.988235294 0 0 0 0.16 0" in="shadowBlurOuter1"/>
        </filter>
        <filter x="-49.4%" y="-47.1%" width="198.8%" height="198.8%" filterUnits="objectBoundingBox" id="m48yoofj8A">
            <feGaussianBlur stdDeviation="2.182" in="SourceGraphic"/>
        </filter>
        <filter x="-52.7%" y="-50.4%" width="205.4%" height="205.4%" filterUnits="objectBoundingBox" id="cw4fka7pzB">
            <feOffset dy="1" in="SourceAlpha" result="shadowOffsetOuter1"/>
            <feGaussianBlur stdDeviation="7.5" in="shadowOffsetOuter1" result="shadowBlurOuter1"/>
            <feComposite in="shadowBlurOuter1" in2="SourceAlpha" operator="out" result="shadowBlurOuter1"/>
            <feColorMatrix values="0 0 0 0 0.121568627 0 0 0 0 0.352941176 0 0 0 0 0.988235294 0 0 0 0.16 0" in="shadowBlurOuter1"/>
        </filter>
        <circle id="jz3an4n7od" cx="26.182" cy="26.182" r="26.182"/>
        <circle id="cvo2e1s94f" cx="13.091" cy="13.091" r="13.091"/>
        <circle id="8rhs8qziui" cx="13.091" cy="13.091" r="13.091"/>
        <circle id="l7of42dkdl" cx="17.455" cy="17.455" r="17.455"/>
        <circle id="wi8v937pjr" cx="17.455" cy="17.455" r="17.455"/>
        <circle id="q4gltu6gxx" cx="21.818" cy="21.818" r="21.818"/>
        <circle id="1rt8u1l5yC" cx="21.818" cy="21.818" r="21.818"/>
        <path id="e7263q7kga" d="M0 0h768v305H0z"/>
        <path d="M2.356 0h10.997a2.356 2.356 0 0 1 2.356 2.356v6.808a6.545 6.545 0 0 1-6.545 6.545H2.356A2.356 2.356 0 0 1 0 13.353V2.356A2.356 2.356 0 0 1 2.356 0z" id="0hj68ky3my"/>
    </defs>
    <g fill="none" fill-rule="evenodd">
        <mask id="pjfvzxtf3b" fill="#fff">
            <use xlink:href="#e7263q7kga"/>
        </mask>
        <g mask="url(#pjfvzxtf3b)">
            <g transform="translate(649.745 114.157)">
                <use fill="#000" filter="url(#lqsjw1n94c)" xlink:href="#jz3an4n7od"/>
                <circle stroke="#EEF3FF" stroke-width=".873" stroke-linejoin="square" fill="#FFF" cx="26.182" cy="26.182" r="25.745"/>
            </g>
            <path d="M665.455 129.866H686.4v20.945h-20.945z"/>
            <path d="M680.604 147.504a.688.688 0 0 1 .913.33.682.682 0 0 1-.331.908c-1.406.654-3.275 1.022-5.26 1.022-1.983 0-3.853-.368-5.257-1.022a.682.682 0 0 1-.331-.909c.16-.342.57-.49.913-.33 1.211.565 2.883.894 4.676.894 1.793 0 3.464-.329 4.677-.893zM671.416 132.707l-.118.114a6.494 6.494 0 0 0-.114 9.096l.135.137 4.122 4.102a.69.69 0 0 0 .972 0l4.142-4.122a6.493 6.493 0 0 0 0-9.213 6.57 6.57 0 0 0-9.139-.114z" fill="#4476FF" fill-rule="nonzero"/>
            <path d="M678.216 137.338a2.284 2.284 0 0 1-2.289 2.278 2.284 2.284 0 0 1-2.29-2.278 2.284 2.284 0 0 1 2.29-2.28c1.265 0 2.29 1.022 2.29 2.28" fill="#EEF3FF"/>
        </g>
        <g mask="url(#pjfvzxtf3b)">
            <g transform="translate(575.127 13.071)">
                <use fill="#000" filter="url(#zxvbgxfuae)" xlink:href="#cvo2e1s94f"/>
                <circle stroke="#EEF3FF" stroke-width=".533" stroke-linejoin="square" fill="#FFF" cx="13.091" cy="13.091" r="12.824"/>
            </g>
            <path d="M582.982 20.926h10.473v10.473h-10.473z"/>
            <g transform="translate(583.418 21.799)">
                <rect fill="#EEF3FF" width="8.764" height="6.619" rx="1.105"/>
                <path d="m2.45 7.809-.95-1.53a.138.138 0 0 1 .118-.212h1.9a.138.138 0 0 1 .117.211l-.95 1.53a.138.138 0 0 1-.235 0z" fill="#EEF3FF"/>
                <path d="M2.602 3.24a.48.48 0 0 1-.48.483.481.481 0 0 1-.479-.483c0-.266.215-.482.48-.482a.48.48 0 0 1 .479.482m2.328 0a.48.48 0 0 1-.48.483.481.481 0 0 1-.479-.483c0-.266.215-.482.48-.482a.48.48 0 0 1 .479.482m2.328 0a.48.48 0 0 1-.48.483.481.481 0 0 1-.479-.483c0-.266.215-.482.48-.482a.48.48 0 0 1 .479.482M5.77 4.705a.553.553 0 0 0-.552.553v1.864c0 .305.247.552.553.552h2.118l.369.584a.07.07 0 0 0 .117 0l.37-.584h.302a.553.553 0 0 0 .553-.552V5.258a.553.553 0 0 0-.553-.553H5.771z" fill="#4476FF"/>
            </g>
        </g>
        <g filter="url(#2jb7tc6tig)" mask="url(#pjfvzxtf3b)">
            <g transform="translate(37.527 107.186)">
                <use fill="#000" filter="url(#axkqpd9g9h)" xlink:href="#8rhs8qziui"/>
                <circle stroke="#EEF3FF" stroke-width=".533" stroke-linejoin="square" fill="#FFF" cx="13.091" cy="13.091" r="12.824"/>
            </g>
            <g transform="translate(45.818 115.477)">
                <rect fill="#EEF3FF" fill-rule="nonzero" width="9.6" height="9.6" rx="1.694"/>
                <path d="M4.382 2.541a1.84 1.84 0 0 0-1.84 1.844c-.001.47.18.944.539 1.303.359.36.832.54 1.303.54h.003c.331 0 .665-.092.959-.272l.978.977a.433.433 0 0 0 .609 0 .432.432 0 0 0 0-.61l-.978-.976c.18-.294.273-.629.272-.962.001-.47-.18-.945-.539-1.303l-.304.304.304-.305a1.844 1.844 0 0 0-1.301-.54h-.005zM3.689 5.08a.979.979 0 0 1-.287-.694c0-.254.096-.502.288-.694a.979.979 0 0 1 .694-.288.982.982 0 0 1 .982.982.978.978 0 0 1-.982.981.978.978 0 0 1-.695-.287z" fill="#4476FF"/>
            </g>
        </g>
        <g opacity=".2" mask="url(#pjfvzxtf3b)">
            <g filter="url(#pbof6kehrj)" transform="translate(684.655 34.421)">
                <use fill="#000" filter="url(#8quek3gkok)" xlink:href="#l7of42dkdl"/>
                <circle stroke="#EEF3FF" stroke-width=".533" stroke-linejoin="square" fill="#FFF" cx="17.455" cy="17.455" r="17.188"/>
            </g>
            <g transform="translate(694.255 43.585)">
                <rect fill="#EEF3FF" filter="url(#j12u1b2mzm)" y="1.346" width="15.709" height="14.363" rx="2.693"/>
                <path d="M9.7 8.777a1.795 1.795 0 1 1-3.59 0 1.795 1.795 0 0 1 3.59 0" fill="#4476FF" filter="url(#nfw3heitfn)"/>
                <path d="M3.815 0c.496 0 .898.402.898.898v1.695a.898.898 0 1 1-1.796 0V.898c0-.496.402-.898.898-.898zm4.04 0c.495 0 .897.402.897.898v1.695a.898.898 0 0 1-1.795 0V.898c0-.496.402-.898.898-.898zm4.039 0c.496 0 .898.402.898.898v1.695a.898.898 0 1 1-1.796 0V.898c0-.496.402-.898.898-.898z" fill="#4476FF" filter="url(#m04ktmi2lo)"/>
            </g>
        </g>
        <g opacity=".2" mask="url(#pjfvzxtf3b)">
            <g filter="url(#oeany6136p)" transform="translate(37.527 4.357)">
                <use fill="#000" filter="url(#2qqzrt0jeq)" xlink:href="#wi8v937pjr"/>
                <circle stroke="#EEF3FF" stroke-width=".533" stroke-linejoin="square" fill="#FFF" cx="17.455" cy="17.455" r="17.188"/>
            </g>
            <path filter="url(#ms8v1m4hps)" d="M0 0h13.964v13.964H0z" transform="translate(48 14.83)"/>
            <path d="M7.481 11.06a.459.459 0 0 1 .61.22c.106.228.007.5-.222.606-.937.436-2.183.681-3.506.681s-2.569-.245-3.505-.681a.455.455 0 0 1-.22-.606.459.459 0 0 1 .608-.22c.808.376 1.922.596 3.117.596s2.31-.22 3.118-.596z" fill="#4476FF" fill-rule="nonzero" filter="url(#ghj37u032t)" transform="translate(50.618 15.528)"/>
            <path d="m1.356 1.196-.078.076a4.33 4.33 0 0 0-.076 6.064l.09.091 2.748 2.735a.46.46 0 0 0 .647 0L7.45 7.414a4.329 4.329 0 0 0 0-6.142 4.38 4.38 0 0 0-6.093-.076z" fill="#4476FF" fill-rule="nonzero" filter="url(#yqstyfdieu)" transform="translate(50.618 15.528)"/>
            <path d="M4.364 5.802c-.844 0-1.527-.68-1.527-1.52 0-.838.683-1.518 1.527-1.518.843 0 1.526.68 1.526 1.519 0 .838-.683 1.519-1.526 1.519z" fill="#EEF3FF" filter="url(#nnoi5pohzv)" transform="translate(50.618 15.528)"/>
        </g>
        <g mask="url(#pjfvzxtf3b)">
            <g transform="translate(147.055 4.357)">
                <use fill="#000" filter="url(#pub01aq2iw)" xlink:href="#q4gltu6gxx"/>
                <circle stroke="#EEF3FF" stroke-width=".533" stroke-linejoin="square" fill="#FFF" cx="21.818" cy="21.818" r="21.552"/>
            </g>
            <g transform="translate(161.018 18.32)">
                <mask id="gb4m6gbcaz" fill="#fff">
                    <use xlink:href="#0hj68ky3my"/>
                </mask>
                <use fill="#EEF3FF" xlink:href="#0hj68ky3my"/>
                <path d="M14.872 10.667h-2.35c-.914 0-1.66.747-1.66 1.66v2.35c0 5.308.975 1.517 1.763.732l2.977-2.978c.545-.544 2.345-1.254 1.91-1.594-.194-.152-2.296-.17-2.64-.17z" fill="#4476FF" fill-rule="nonzero" mask="url(#gb4m6gbcaz)"/>
            </g>
            <path d="M164.313 25.033a.589.589 0 0 1 0-1.179h2.269a.59.59 0 0 1 0 1.18h-2.27zM164.313 27.936a.59.59 0 0 1 0-1.179h2.269a.589.589 0 1 1 0 1.179h-2.27zM173.796 22.69a1.309 1.309 0 1 1-2.618 0 1.309 1.309 0 0 1 2.618 0" fill="#4476FF"/>
        </g>
        <g filter="url(#m48yoofj8A)" mask="url(#pjfvzxtf3b)">
            <g transform="translate(68.073 242.693)">
                <use fill="#000" filter="url(#cw4fka7pzB)" xlink:href="#1rt8u1l5yC"/>
                <circle stroke="#EEF3FF" stroke-width=".533" stroke-linejoin="square" fill="#FFF" cx="21.818" cy="21.818" r="21.552"/>
            </g>
            <g transform="translate(80.29 255.784)">
                <rect fill="#EEF3FF" fill-rule="nonzero" width="19.2" height="13.752" rx="3.36"/>
                <rect fill="#4476FF" x="5.333" y="15.868" width="8.533" height="1.587" rx=".793"/>
                <path d="M9.6 6.307c.692 0 1.343.268 1.822.734a.665.665 0 0 1 0 .96.713.713 0 0 1-.934.047L10.435 8a1.191 1.191 0 0 0-.833-.337c-.287 0-.556.1-.767.275l-.069.062a.713.713 0 0 1-.987 0 .665.665 0 0 1 0-.96A2.61 2.61 0 0 1 9.6 6.307zm0-2.605a6.57 6.57 0 0 1 4.596 1.85.665.665 0 0 1 0 .96.713.713 0 0 1-.988 0A5.154 5.154 0 0 0 9.6 5.06a5.162 5.162 0 0 0-3.61 1.452.713.713 0 0 1-.987 0 .665.665 0 0 1 .001-.96 6.58 6.58 0 0 1 4.596-1.85zm.802 6.097c0 .43-.359.78-.802.78a.791.791 0 0 1-.802-.78c0-.43.36-.78.802-.78.443 0 .802.35.802.78" fill="#4476FF" fill-rule="nonzero"/>
            </g>
        </g>
    </g>
</svg>
