<svg width="768" height="600" viewBox="0 0 768 600" xmlns="http://www.w3.org/2000/svg">
    <defs>
        <radialGradient cx="50%" cy="0%" fx="50%" fy="0%" r="88.744%" gradientTransform="scale(.78125 1) rotate(1.933 .57 4.15)" id="bsjk5sz5xa">
            <stop stop-color="#91B2FF" offset="0%"/>
            <stop stop-color="#4778FF" offset="100%"/>
        </radialGradient>
    </defs>
    <g fill="none" fill-rule="evenodd">
        <path fill="url(#bsjk5sz5xa)" d="M0 0h768v600H0z"/>
        <path d="M368.619 60.125V460c-6.44-2.748-12.88-5.497-18.942-8.37l-10.607-5.246V277.239c-12.123 11.868-25.634 24.985-29.55 28.732v123.673c-4.293-2.623-8.46-5.372-12.627-8.245-5.809-3.997-11.491-8.245-17.047-12.617V293.604l4.42-4.247 44.07-42.973-48.49-47.096v-81.074h29.549v68.707c3.914 3.747 17.426 16.99 29.549 28.857V89.232H221V60h147.619v.125zm-76.19 186.536s-35.339-34.52-42.106-41.15v-87.178H221v99.436s18.922 18.511 29.449 28.767C239.922 256.793 221 275.304 221 275.304v70.042c6.642 10.632 14.662 21.138 23.684 31.27l5.64 6.003v-95.058c6.766-6.629 42.105-41.025 42.105-41.025v.125zm190.053 42.874-44.07-42.96 48.49-47.08v-81.05h-29.55v68.686c-3.914 3.746-17.426 16.984-29.548 28.848V89.223H546V60H398.381v400c6.566-2.747 13.007-5.495 19.194-8.492 3.536-1.748 6.946-3.372 10.355-5.12V277.17c12.123 11.864 25.634 24.977 29.55 28.723v123.76c4.293-2.748 8.586-5.495 12.88-8.368 5.682-3.996 11.364-8.117 16.668-12.363V293.53l-4.42-4.246-.126.25zm33.504-43.18a27754.867 27754.867 0 0 0 29.887-28.727v-99.295h-29.76v87.055c-6.868 6.62-42.732 41.091-42.732 41.091s35.864 34.472 42.732 40.967v95.173c2.035-2.123 3.943-4.122 5.977-6.245 9.03-9.867 17.042-20.233 23.91-30.725v-70.443s-19.331-18.485-29.887-28.727l-.127-.124z" fill="#1F5AFC" fill-rule="nonzero" opacity=".05"/>
    </g>
</svg>
