<svg width="360" height="460" viewBox="0 0 360 460" xmlns="http://www.w3.org/2000/svg">
    <defs>
        <radialGradient cx="50%" cy="0%" fx="50%" fy="0%" r="69.398%" gradientTransform="scale(1 .7826) rotate(3.159 .5 0)" id="3eis5va08a">
            <stop stop-color="#91B2FF" offset="0%"/>
            <stop stop-color="#4778FF" offset="100%"/>
        </radialGradient>
    </defs>
    <g fill="none" fill-rule="evenodd">
        <path fill="url(#3eis5va08a)" d="M0 0h360v460H0z"/>
        <path d="M168.095 40.1V360c-5.152-2.199-10.304-4.397-15.153-6.696l-8.486-4.197V213.79c-9.698 9.494-20.508 19.988-23.64 22.986v98.938c-3.434-2.099-6.768-4.297-10.102-6.596-4.647-3.198-9.193-6.596-13.638-10.093v-92.143l3.536-3.398 35.257-34.378-38.793-37.677V86.57h23.64v54.967c3.131 2.998 13.94 13.591 23.639 23.085V63.385H50V40h118.095v.1zm-60.952 149.23s-28.27-27.618-33.684-32.92V86.666H50v79.548s15.138 14.809 23.559 23.014C65.138 197.434 50 212.243 50 212.243v56.034c5.313 8.505 11.73 16.91 18.947 25.015l4.512 4.803V222.05c5.413-5.303 33.684-32.82 33.684-32.82v.1zm152.043 34.298-35.257-34.368 38.792-37.665V86.756h-23.639v54.949c-3.131 2.997-13.94 13.587-23.639 23.078V63.378H310V40H191.905v320c5.253-2.198 10.405-4.396 15.355-6.794 2.829-1.398 5.556-2.697 8.284-4.096V213.737c9.698 9.491 20.508 19.981 23.64 22.979v99.007c3.434-2.198 6.869-4.396 10.304-6.694 4.546-3.197 9.092-6.494 13.335-9.89v-92.314l-3.536-3.397-.101.2zm26.803-34.544c8.546-8.194 23.91-22.982 23.91-22.982V86.667H286.09v69.643a82067.272 82067.272 0 0 1-34.185 32.874s28.691 27.577 34.185 32.773v76.138c1.628-1.698 3.154-3.297 4.782-4.996 7.224-7.893 13.634-16.187 19.128-24.58v-56.354s-15.465-14.788-23.91-22.981l-.101-.1z" fill="#1F5AFC" fill-rule="nonzero" opacity=".05"/>
    </g>
</svg>
