<svg width="1760" height="900" viewBox="0 0 1760 900" xmlns="http://www.w3.org/2000/svg">
    <defs>
        <radialGradient cx="50%" cy="0%" fx="50%" fy="0%" r="135.538%" gradientTransform="scale(.51136 1) rotate(1.265 .739 21.635)" id="h2k95zur8a">
            <stop stop-color="#91B2FF" offset="0%"/>
            <stop stop-color="#4778FF" offset="100%"/>
        </radialGradient>
    </defs>
    <g fill="none" fill-rule="evenodd">
        <rect fill="url(#h2k95zur8a)" width="1760" height="900" rx="80"/>
        <path d="M857.656 80.187V680c-9.67-4.122-19.34-8.245-28.442-12.555l-15.927-7.87V405.86c-18.203 17.801-38.491 37.476-44.37 43.098v185.509c-6.446-3.935-12.703-8.058-18.96-12.367-8.723-5.997-17.255-12.368-25.598-18.926V430.406l6.636-6.371 66.175-64.46-72.811-70.643V167.32h44.369v103.061c5.878 5.621 26.166 25.484 44.369 43.285V123.848H636V80h221.656v.187zM743.253 359.992s-53.062-51.781-63.223-61.725V167.5H636v149.153s28.413 27.767 44.218 43.151C664.413 375.19 636 402.956 636 402.956V508.02c9.973 15.947 22.015 31.706 35.563 46.903l8.467 9.006V421.342c10.16-9.944 63.223-61.538 63.223-61.538v.188zm285.372 64.31-66.174-64.44 72.81-70.62V167.667h-44.368v103.028c-5.878 5.62-26.167 25.476-44.37 43.272V123.834H1124V80H902.344v600c9.86-4.121 19.53-8.242 28.821-12.738 5.31-2.623 10.429-5.058 15.548-7.68V405.757c18.203 17.796 38.491 37.465 44.37 43.085V634.48c6.446-4.121 12.893-8.242 19.34-12.55 8.532-5.995 17.065-12.177 25.028-18.546V430.297l-6.636-6.37-.19.375zm50.308-64.77c16.04-15.363 44.876-43.09 44.876-43.09V167.5h-44.685v130.582c-10.313 9.93-64.164 61.637-64.164 61.637s53.851 51.708 64.164 61.45v142.76c3.055-3.185 5.92-6.183 8.975-9.368 13.558-14.8 25.589-30.35 35.901-46.087V402.809s-29.026-27.727-44.876-43.09l-.191-.187z" fill="#1F5AFC" fill-rule="nonzero" opacity=".05"/>
    </g>
</svg>
