<svg width="80" height="80" viewBox="0 0 80 80" xmlns="http://www.w3.org/2000/svg" xmlns:xlink="http://www.w3.org/1999/xlink">
    <defs>
        <path id="ibrm63q3xa" d="M0 0h64v44H0z"/>
    </defs>
    <g fill="none" fill-rule="evenodd">
        <path d="M30.767 0h18.466c10.699 0 14.578 1.114 18.49 3.206 3.91 2.091 6.98 5.16 9.071 9.072C78.886 16.189 80 20.068 80 30.767v18.466c0 10.699-1.114 14.578-3.206 18.49-2.091 3.91-5.16 6.98-9.072 9.071C63.811 78.886 59.932 80 49.233 80H30.767c-10.699 0-14.578-1.114-18.49-3.206-3.91-2.091-6.98-5.16-9.071-9.072C1.114 63.811 0 59.932 0 49.233V30.767c0-10.699 1.114-14.578 3.206-18.49 2.091-3.91 5.16-6.98 9.072-9.071C16.189 1.114 20.068 0 30.767 0z" fill="#E90000" fill-rule="nonzero"/>
        <g transform="translate(8 18)">
            <mask id="chkokgh87b" fill="#fff">
                <use xlink:href="#ibrm63q3xa"/>
            </mask>
            <path d="m62.99 30.913-9.488 5.55V25.366l5.149-3.013 4.339-2.54v11.099zm-9.994-6.432L32.252 12.349a.499.499 0 0 0-.505 0L11.003 24.48l-5.857-3.428-3.63-2.125L32 1.103l30.485 17.825-8.225 4.814-1.264.739zm-.505 11.981-9.488-5.55v-5.844a.513.513 0 0 0-.252-.443l-10.246-5.992v-4.955l13.324 7.793 6.662 3.896v11.095zM41.993 25.954V37.05l-9.488 5.553V31.504l2.372-1.388 2.372-1.387 1.01-.59 3.734-2.185zM32 30.617l-2.372-1.387-1.867-1.092-1.01-.59-4.24-2.48 8.984-5.254.505-.295.505.295 8.983 5.254-4.239 2.48-1.01.59-1.867 1.092L32 30.617zm-.505.887v11.098l-9.488-5.55V25.955l3.734 2.184 1.01.591 2.372 1.387 2.372 1.388zm-10.498-6.436v5.845l-9.489 5.55V25.366l19.987-11.689v4.955l-10.246 5.992a.513.513 0 0 0-.252.443zM10.498 36.462l-9.488-5.55V19.816l9.488 5.552v11.095zm53.25-17.977L32.251.069a.5.5 0 0 0-.505 0L.253 18.485a.513.513 0 0 0-.253.443v12.28c0 .183.096.352.253.443l10.498 6.14a.5.5 0 0 0 .505 0l9.74-5.696v5.253c0 .183.097.352.253.443l10.498 6.14.002.001a.499.499 0 0 0 .503 0l10.499-6.144a.513.513 0 0 0 .252-.444v-5.25l9.741 5.697a.5.5 0 0 0 .505 0l10.498-6.14a.513.513 0 0 0 .253-.443v-12.28a.513.513 0 0 0-.253-.443z" fill="#FFF" mask="url(#chkokgh87b)"/>
        </g>
    </g>
</svg>
